<?xml version="1.0" encoding="UTF-8"?>
<svg width="19px" height="25px" viewBox="0 0 19 25" version="1.1" xmlns="http://www.w3.org/2000/svg" xmlns:xlink="http://www.w3.org/1999/xlink">
    <!-- Generator: Sketch 48.1 (47250) - http://www.bohemiancoding.com/sketch -->
    <title>if_31_shield_protection_safety_security_google_2109155</title>
    <desc>Created with Sketch.</desc>
    <defs></defs>
    <g id="Artboard" stroke="none" stroke-width="1" fill="none" fill-rule="evenodd" transform="translate(-50.000000, -140.000000)">
        <g id="if_31_shield_protection_safety_security_google_2109155" transform="translate(50.000000, 139.000000)" fill-rule="nonzero">
            <path d="M9.48437,0.9966 C6.89388,3.6134 3.59884,5.421 0,6.1997 L0,15.7325 C0,20.8654 3.79349,22.7905 9.48242,26 L9.49802,26 C15.18695,22.7905 18.98044,20.8653 18.98044,15.7325 L18.98044,6.1957 C15.37786,5.4202 12.07853,3.6139 9.48435,0.9965 L9.48437,0.9966 Z" id="path5230" fill="#29A8DF"></path>
            <path d="M14.9902248,13.5 C14.9902248,16.5375661 12.527791,19 9.4902249,19 C8.0315342,19.0000001 6.63258765,18.4205375 5.60113754,17.3890874 C4.56968744,16.3576373 3.9902248,14.9586907 3.9902248,13.5 C3.9902248,12.0413093 4.56968744,10.6423627 5.60113754,9.61091263 C6.63258765,8.57946255 8.0315342,7.99999995 9.4902249,8 C10.9489156,8 12.3478621,8.57946262 13.3793121,9.6109127 C14.4107622,10.6423628 14.9902248,12.0413093 14.9902248,13.5 Z" id="circle5232" fill="#E72599"></path>
            <path d="M5.99022,17.5 C5.99024,15.5757 7.54369,14.0124 9.46794,14.0001 C11.39222,13.9881 12.96547,15.5313 12.98996,17.4555 L9.49009,18.9781 L5.99022,17.5 Z" id="path5234" fill="#F9F9F9"></path>
            <path d="M10.990221,12.5 C10.9902189,13.3284278 10.3186466,14.0000001 9.490221,14 C8.66179539,14.0000001 7.9902231,13.3284278 7.990221,12.5 C7.9902231,11.6715722 8.66179539,10.9999999 9.490221,11 C10.3186466,10.9999999 10.9902189,11.6715722 10.990221,12.5 Z" id="circle5236" fill="#F9F9F9"></path>
            <path d="M9.49114,13.9993 C7.55814338,13.9993 5.99114,15.5663034 5.99114,17.4993 C5.99087226,17.5820686 5.9935406,17.6648206 5.99914,17.7474 C6.98309152,18.5565403 8.21741145,18.9990262 9.49133,18.9993 C10.7639057,18.9981212 11.9966958,18.5556883 12.97961,17.7474 C12.9864441,17.6648645 12.9903465,17.5821124 12.99131,17.4993 C12.99131,15.5663034 11.4243066,13.9993 9.49131,13.9993 L9.49114,13.9993 Z" id="path5774" fill="#F9F9F9"></path>
        </g>
    </g>
</svg>