<?xml version="1.0" encoding="UTF-8"?>
<svg width="16px" height="10px" viewBox="0 0 16 10" version="1.1" xmlns="http://www.w3.org/2000/svg" xmlns:xlink="http://www.w3.org/1999/xlink">
    <!-- Generator: Sketch 53 (72520) - https://sketchapp.com -->
    <title>Combined Shape</title>
    <desc>Created with Sketch.</desc>
    <g id="Music-Pages---Redesign" stroke="none" stroke-width="1" fill="none" fill-rule="evenodd">
        <g id="01---Advanced---1" transform="translate(-314.000000, -284.000000)" fill="#FFFFFF" fill-rule="nonzero">
            <g id="Playlist#" transform="translate(306.000000, 275.000000)">
                <path d="M19.9681383,18.8471722 C19.4334503,19.1788486 19,18.9294413 19,18.309072 L19,13.6908678 C19,13.0620069 19.4361308,12.822754 19.9681383,13.1527676 L23.589911,15.3994167 C24.124599,15.7310931 24.1219185,16.2705095 23.589911,16.6005231 L19.9681383,18.8471722 Z M9,9 L23,9 C23.5522847,9 24,9.44771525 24,10 C24,10.5522847 23.5522847,11 23,11 L9,11 C8.44771525,11 8,10.5522847 8,10 C8,9.44771525 8.44771525,9 9,9 Z M9,17 L16,17 C16.5522847,17 17,17.4477153 17,18 C17,18.5522847 16.5522847,19 16,19 L9,19 C8.44771525,19 8,18.5522847 8,18 C8,17.4477153 8.44771525,17 9,17 Z M9,13 L16,13 C16.5522847,13 17,13.4477153 17,14 C17,14.5522847 16.5522847,15 16,15 L9,15 C8.44771525,15 8,14.5522847 8,14 C8,13.4477153 8.44771525,13 9,13 Z" id="Combined-Shape"></path>
            </g>
        </g>
    </g>
</svg>