<svg width="60" height="40" fill="none" xmlns="http://www.w3.org/2000/svg"><path d="M13.068 13.541C6.216 13.901.78 19.568.78 26.507c0 6.938 5.448 12.605 12.288 12.965a.647.647 0 0 0 .684-.648V14.19c0-.36-.3-.649-.648-.649h-.036Zm13.62 0c-6.852.36-12.288 6.027-12.288 12.966 0 6.938 5.448 12.605 12.288 12.965a.647.647 0 0 0 .684-.648V14.19c0-.36-.3-.649-.66-.649h-.024Zm15.396.649V39.1c0 .216.18.396.396.384 6.984-.204 12.588-5.943 12.588-12.977 0-6.94-5.448-12.605-12.288-12.966h-.036c-.36 0-.66.288-.66.649ZM28.176 1.152c-.012 3.902-.012 23.314-.024 25.103 0 .084 0 .18.012.264C29.22 38.33 38.748 39.388 40.836 39.484a.382.382 0 0 0 .396-.384V22.425c0 .024-.024-7.66-.024-8.824 0-.096 0-.204-.012-.3C40.404 2.365 31.464.756 28.872.516h-.06a.633.633 0 0 0-.636.636ZM59.22 36.675c0 1.548-1.26 2.809-2.808 2.809a2.812 2.812 0 0 1-2.808-2.81c0-1.548 1.26-2.808 2.808-2.808a2.812 2.812 0 0 1 2.808 2.809Z" fill="#EBEBEB"/></svg>